<svg preserveAspectRatio="none" overflow="visible" style="display: block;" width="20" height="20" viewBox="0 0 20 20" fill="none" xmlns="http://www.w3.org/2000/svg">
<g id="map:clothing-store">
<path id="Vector" d="M18.944 5.9C18.976 6.016 18.9356 6.144 18.868 6.244L16.712 9.452C16.632 9.576 16.464 9.644 16.3236 9.644C16.2836 9.644 16.1716 9.636 16.128 9.624L14.4 9.2V16.8C14.4 17.032 14.236 17.2 14 17.2H5.6C5.364 17.2 5.2 17.032 5.2 16.8V9.2L3.648 9.628C3.468 9.684 3.312 9.612 3.212 9.456L1.072 6.256C1.004 6.152 0.984 6.036 1.016 5.92C1.044 5.8 1.128 5.72 1.236 5.664L5.6 3.6H7.6C7.836 3.6 8 3.764 8 4C8 4.824 9.156 5.408 9.98 5.408C10.804 5.408 12 4.828 12 4C12 3.768 12.164 3.6 12.4 3.6H14.4L18.72 5.624C18.832 5.68 18.912 5.78 18.944 5.9Z" fill="#FF7443"/>
</g>
</svg>
