<svg width="20" height="20" viewBox="0 0 20 20" fill="none" xmlns="http://www.w3.org/2000/svg">
<path d="M5.00004 18.3334H15C15.9167 18.3334 16.6667 17.5834 16.6667 16.6667V9.16675C16.6667 8.25008 15.9167 7.50008 15 7.50008H7.50004V5.83341C7.50004 4.45841 8.62504 3.33341 10 3.33341C11.375 3.33341 12.5 4.45841 12.5 5.83341H14.1667C14.1667 3.53341 12.3 1.66675 10 1.66675C7.70004 1.66675 5.83337 3.53341 5.83337 5.83341V7.50008H5.00004C4.08337 7.50008 3.33337 8.25008 3.33337 9.16675V16.6667C3.33337 17.5834 4.08337 18.3334 5.00004 18.3334Z" fill="black"/>
</svg>
